<mxfile host="app.diagrams.net" modified="2021-09-05T11:01:17.802Z" agent="5.0 (Windows NT 10.0; Win64; x64) AppleWebKit/537.36 (KHTML, like Gecko) Chrome/92.0.4515.159 Safari/537.36" etag="nX6eQ8g0lwZesMuFx6nB" version="15.0.6" type="github" pages="2">
  <diagram id="C5RBs43oDa-KdzZeNtuy" name="environment">
    <mxGraphModel dx="582" dy="1602" grid="1" gridSize="10" guides="1" tooltips="1" connect="1" arrows="1" fold="1" page="1" pageScale="1" pageWidth="827" pageHeight="1169" math="0" shadow="0">
      <root>
        <mxCell id="WIyWlLk6GJQsqaUBKTNV-0" />
        <mxCell id="WIyWlLk6GJQsqaUBKTNV-1" parent="WIyWlLk6GJQsqaUBKTNV-0" />
        <mxCell id="zkfFHV4jXpPFQw0GAbJ--13" value="Enviroment.py" style="swimlane;fontStyle=0;align=center;verticalAlign=top;childLayout=stackLayout;horizontal=1;startSize=26;horizontalStack=0;resizeParent=1;resizeLast=0;collapsible=1;marginBottom=0;rounded=0;shadow=0;strokeWidth=1;" parent="WIyWlLk6GJQsqaUBKTNV-1" vertex="1">
          <mxGeometry x="20" y="200" width="160" height="130" as="geometry">
            <mxRectangle x="340" y="380" width="170" height="26" as="alternateBounds" />
          </mxGeometry>
        </mxCell>
        <mxCell id="0TfP8fRb7ajPq9gJ7ajQ-8" value="resetGame" style="text;html=1;align=center;verticalAlign=middle;resizable=0;points=[];autosize=1;strokeColor=none;fillColor=none;" parent="zkfFHV4jXpPFQw0GAbJ--13" vertex="1">
          <mxGeometry y="26" width="160" height="20" as="geometry" />
        </mxCell>
        <mxCell id="0TfP8fRb7ajPq9gJ7ajQ-9" value="giveCards" style="text;html=1;align=center;verticalAlign=middle;resizable=0;points=[];autosize=1;strokeColor=none;fillColor=none;" parent="zkfFHV4jXpPFQw0GAbJ--13" vertex="1">
          <mxGeometry y="46" width="160" height="20" as="geometry" />
        </mxCell>
        <mxCell id="0TfP8fRb7ajPq9gJ7ajQ-10" value="find_turn" style="text;html=1;align=center;verticalAlign=middle;resizable=0;points=[];autosize=1;strokeColor=none;fillColor=none;" parent="zkfFHV4jXpPFQw0GAbJ--13" vertex="1">
          <mxGeometry y="66" width="160" height="20" as="geometry" />
        </mxCell>
        <mxCell id="0TfP8fRb7ajPq9gJ7ajQ-12" value="action_able" style="text;html=1;align=center;verticalAlign=middle;resizable=0;points=[];autosize=1;strokeColor=none;fillColor=none;" parent="zkfFHV4jXpPFQw0GAbJ--13" vertex="1">
          <mxGeometry y="86" width="160" height="20" as="geometry" />
        </mxCell>
        <mxCell id="0TfP8fRb7ajPq9gJ7ajQ-13" value="step" style="text;html=1;align=center;verticalAlign=middle;resizable=0;points=[];autosize=1;strokeColor=none;fillColor=none;" parent="zkfFHV4jXpPFQw0GAbJ--13" vertex="1">
          <mxGeometry y="106" width="160" height="20" as="geometry" />
        </mxCell>
        <mxCell id="0TfP8fRb7ajPq9gJ7ajQ-7" style="edgeStyle=orthogonalEdgeStyle;rounded=0;orthogonalLoop=1;jettySize=auto;html=1;exitX=0.5;exitY=1;exitDx=0;exitDy=0;entryX=0.5;entryY=0;entryDx=0;entryDy=0;" parent="WIyWlLk6GJQsqaUBKTNV-1" source="0TfP8fRb7ajPq9gJ7ajQ-5" target="0TfP8fRb7ajPq9gJ7ajQ-6" edge="1">
          <mxGeometry relative="1" as="geometry" />
        </mxCell>
        <mxCell id="0TfP8fRb7ajPq9gJ7ajQ-5" value="Proceed_Game.py" style="rounded=1;whiteSpace=wrap;html=1;arcSize=50;" parent="WIyWlLk6GJQsqaUBKTNV-1" vertex="1">
          <mxGeometry x="280" y="20" width="120" height="40" as="geometry" />
        </mxCell>
        <mxCell id="0TfP8fRb7ajPq9gJ7ajQ-18" style="edgeStyle=orthogonalEdgeStyle;rounded=0;orthogonalLoop=1;jettySize=auto;html=1;exitX=0.5;exitY=1;exitDx=0;exitDy=0;entryX=0.5;entryY=0;entryDx=0;entryDy=0;" parent="WIyWlLk6GJQsqaUBKTNV-1" source="0TfP8fRb7ajPq9gJ7ajQ-6" target="0TfP8fRb7ajPq9gJ7ajQ-17" edge="1">
          <mxGeometry relative="1" as="geometry" />
        </mxCell>
        <mxCell id="0TfP8fRb7ajPq9gJ7ajQ-6" value="call Game and reset&lt;br&gt;hand out cards" style="rounded=0;whiteSpace=wrap;html=1;" parent="WIyWlLk6GJQsqaUBKTNV-1" vertex="1">
          <mxGeometry x="280" y="80" width="120" height="40" as="geometry" />
        </mxCell>
        <mxCell id="0TfP8fRb7ajPq9gJ7ajQ-15" style="edgeStyle=orthogonalEdgeStyle;rounded=0;orthogonalLoop=1;jettySize=auto;html=1;entryX=0;entryY=0.5;entryDx=0;entryDy=0;" parent="WIyWlLk6GJQsqaUBKTNV-1" source="0TfP8fRb7ajPq9gJ7ajQ-8" target="0TfP8fRb7ajPq9gJ7ajQ-6" edge="1">
          <mxGeometry relative="1" as="geometry" />
        </mxCell>
        <mxCell id="0TfP8fRb7ajPq9gJ7ajQ-16" style="edgeStyle=orthogonalEdgeStyle;rounded=0;orthogonalLoop=1;jettySize=auto;html=1;entryX=0;entryY=0.5;entryDx=0;entryDy=0;" parent="WIyWlLk6GJQsqaUBKTNV-1" source="0TfP8fRb7ajPq9gJ7ajQ-9" target="0TfP8fRb7ajPq9gJ7ajQ-6" edge="1">
          <mxGeometry relative="1" as="geometry" />
        </mxCell>
        <mxCell id="0TfP8fRb7ajPq9gJ7ajQ-20" style="edgeStyle=orthogonalEdgeStyle;rounded=0;orthogonalLoop=1;jettySize=auto;html=1;exitX=0.5;exitY=1;exitDx=0;exitDy=0;entryX=0.5;entryY=0;entryDx=0;entryDy=0;" parent="WIyWlLk6GJQsqaUBKTNV-1" source="0TfP8fRb7ajPq9gJ7ajQ-17" target="0TfP8fRb7ajPq9gJ7ajQ-19" edge="1">
          <mxGeometry relative="1" as="geometry" />
        </mxCell>
        <mxCell id="0TfP8fRb7ajPq9gJ7ajQ-28" style="edgeStyle=orthogonalEdgeStyle;rounded=0;orthogonalLoop=1;jettySize=auto;html=1;exitX=0.5;exitY=1;exitDx=0;exitDy=0;entryX=0.5;entryY=0;entryDx=0;entryDy=0;" parent="WIyWlLk6GJQsqaUBKTNV-1" source="0TfP8fRb7ajPq9gJ7ajQ-17" target="0TfP8fRb7ajPq9gJ7ajQ-27" edge="1">
          <mxGeometry relative="1" as="geometry" />
        </mxCell>
        <mxCell id="0TfP8fRb7ajPq9gJ7ajQ-57" style="edgeStyle=orthogonalEdgeStyle;rounded=0;orthogonalLoop=1;jettySize=auto;html=1;exitX=0;exitY=0.5;exitDx=0;exitDy=0;entryX=0;entryY=0.5;entryDx=0;entryDy=0;" parent="WIyWlLk6GJQsqaUBKTNV-1" source="0TfP8fRb7ajPq9gJ7ajQ-17" target="0TfP8fRb7ajPq9gJ7ajQ-51" edge="1">
          <mxGeometry relative="1" as="geometry" />
        </mxCell>
        <mxCell id="0TfP8fRb7ajPq9gJ7ajQ-17" value="max 300 times" style="rhombus;whiteSpace=wrap;html=1;" parent="WIyWlLk6GJQsqaUBKTNV-1" vertex="1">
          <mxGeometry x="282" y="140" width="116" height="50" as="geometry" />
        </mxCell>
        <mxCell id="0TfP8fRb7ajPq9gJ7ajQ-24" style="edgeStyle=orthogonalEdgeStyle;rounded=0;orthogonalLoop=1;jettySize=auto;html=1;exitX=0.5;exitY=1;exitDx=0;exitDy=0;entryX=0.5;entryY=0;entryDx=0;entryDy=0;" parent="WIyWlLk6GJQsqaUBKTNV-1" source="0TfP8fRb7ajPq9gJ7ajQ-19" target="0TfP8fRb7ajPq9gJ7ajQ-22" edge="1">
          <mxGeometry relative="1" as="geometry" />
        </mxCell>
        <mxCell id="0TfP8fRb7ajPq9gJ7ajQ-19" value="human player" style="rounded=0;whiteSpace=wrap;html=1;" parent="WIyWlLk6GJQsqaUBKTNV-1" vertex="1">
          <mxGeometry x="280" y="240" width="120" height="40" as="geometry" />
        </mxCell>
        <mxCell id="0TfP8fRb7ajPq9gJ7ajQ-47" style="edgeStyle=orthogonalEdgeStyle;rounded=0;orthogonalLoop=1;jettySize=auto;html=1;exitX=0.5;exitY=1;exitDx=0;exitDy=0;entryX=0.5;entryY=0;entryDx=0;entryDy=0;" parent="WIyWlLk6GJQsqaUBKTNV-1" source="0TfP8fRb7ajPq9gJ7ajQ-21" target="0TfP8fRb7ajPq9gJ7ajQ-46" edge="1">
          <mxGeometry relative="1" as="geometry" />
        </mxCell>
        <mxCell id="0TfP8fRb7ajPq9gJ7ajQ-21" value="낼 카드 입력받음" style="shape=parallelogram;perimeter=parallelogramPerimeter;whiteSpace=wrap;html=1;fixedSize=1;" parent="WIyWlLk6GJQsqaUBKTNV-1" vertex="1">
          <mxGeometry x="275" y="430" width="130" height="40" as="geometry" />
        </mxCell>
        <mxCell id="0TfP8fRb7ajPq9gJ7ajQ-25" style="edgeStyle=orthogonalEdgeStyle;rounded=0;orthogonalLoop=1;jettySize=auto;html=1;exitX=0.5;exitY=1;exitDx=0;exitDy=0;entryX=0.5;entryY=0;entryDx=0;entryDy=0;" parent="WIyWlLk6GJQsqaUBKTNV-1" source="0TfP8fRb7ajPq9gJ7ajQ-22" target="0TfP8fRb7ajPq9gJ7ajQ-23" edge="1">
          <mxGeometry relative="1" as="geometry" />
        </mxCell>
        <mxCell id="0TfP8fRb7ajPq9gJ7ajQ-22" value="print state" style="rounded=0;whiteSpace=wrap;html=1;" parent="WIyWlLk6GJQsqaUBKTNV-1" vertex="1">
          <mxGeometry x="280" y="300" width="120" height="40" as="geometry" />
        </mxCell>
        <mxCell id="0TfP8fRb7ajPq9gJ7ajQ-43" style="edgeStyle=orthogonalEdgeStyle;rounded=0;orthogonalLoop=1;jettySize=auto;html=1;exitX=0.5;exitY=1;exitDx=0;exitDy=0;entryX=0.5;entryY=0;entryDx=0;entryDy=0;" parent="WIyWlLk6GJQsqaUBKTNV-1" source="0TfP8fRb7ajPq9gJ7ajQ-23" target="0TfP8fRb7ajPq9gJ7ajQ-21" edge="1">
          <mxGeometry relative="1" as="geometry" />
        </mxCell>
        <mxCell id="0TfP8fRb7ajPq9gJ7ajQ-45" style="edgeStyle=orthogonalEdgeStyle;rounded=0;orthogonalLoop=1;jettySize=auto;html=1;exitX=0;exitY=0.5;exitDx=0;exitDy=0;entryX=0.5;entryY=0;entryDx=0;entryDy=0;" parent="WIyWlLk6GJQsqaUBKTNV-1" source="0TfP8fRb7ajPq9gJ7ajQ-23" target="0TfP8fRb7ajPq9gJ7ajQ-44" edge="1">
          <mxGeometry relative="1" as="geometry" />
        </mxCell>
        <mxCell id="0TfP8fRb7ajPq9gJ7ajQ-23" value="카드 낼 수 있는가?" style="rhombus;whiteSpace=wrap;html=1;" parent="WIyWlLk6GJQsqaUBKTNV-1" vertex="1">
          <mxGeometry x="270" y="360" width="140" height="50" as="geometry" />
        </mxCell>
        <mxCell id="0TfP8fRb7ajPq9gJ7ajQ-30" style="edgeStyle=orthogonalEdgeStyle;rounded=0;orthogonalLoop=1;jettySize=auto;html=1;exitX=0.5;exitY=1;exitDx=0;exitDy=0;entryX=0.5;entryY=0;entryDx=0;entryDy=0;" parent="WIyWlLk6GJQsqaUBKTNV-1" source="0TfP8fRb7ajPq9gJ7ajQ-27" target="0TfP8fRb7ajPq9gJ7ajQ-29" edge="1">
          <mxGeometry relative="1" as="geometry" />
        </mxCell>
        <mxCell id="0TfP8fRb7ajPq9gJ7ajQ-27" value="AI Player" style="rounded=0;whiteSpace=wrap;html=1;" parent="WIyWlLk6GJQsqaUBKTNV-1" vertex="1">
          <mxGeometry x="450" y="240" width="120" height="40" as="geometry" />
        </mxCell>
        <mxCell id="0TfP8fRb7ajPq9gJ7ajQ-40" style="edgeStyle=orthogonalEdgeStyle;rounded=0;orthogonalLoop=1;jettySize=auto;html=1;exitX=0.5;exitY=1;exitDx=0;exitDy=0;entryX=0.5;entryY=0;entryDx=0;entryDy=0;" parent="WIyWlLk6GJQsqaUBKTNV-1" source="0TfP8fRb7ajPq9gJ7ajQ-29" target="0TfP8fRb7ajPq9gJ7ajQ-31" edge="1">
          <mxGeometry relative="1" as="geometry" />
        </mxCell>
        <mxCell id="0TfP8fRb7ajPq9gJ7ajQ-29" value="get state" style="rounded=0;whiteSpace=wrap;html=1;" parent="WIyWlLk6GJQsqaUBKTNV-1" vertex="1">
          <mxGeometry x="450" y="300" width="120" height="40" as="geometry" />
        </mxCell>
        <mxCell id="0TfP8fRb7ajPq9gJ7ajQ-49" style="edgeStyle=orthogonalEdgeStyle;rounded=0;orthogonalLoop=1;jettySize=auto;html=1;exitX=0.5;exitY=1;exitDx=0;exitDy=0;entryX=1;entryY=0.5;entryDx=0;entryDy=0;" parent="WIyWlLk6GJQsqaUBKTNV-1" source="0TfP8fRb7ajPq9gJ7ajQ-31" target="0TfP8fRb7ajPq9gJ7ajQ-46" edge="1">
          <mxGeometry relative="1" as="geometry" />
        </mxCell>
        <mxCell id="0TfP8fRb7ajPq9gJ7ajQ-31" value="solve action" style="rounded=0;whiteSpace=wrap;html=1;" parent="WIyWlLk6GJQsqaUBKTNV-1" vertex="1">
          <mxGeometry x="450" y="360" width="120" height="40" as="geometry" />
        </mxCell>
        <mxCell id="0TfP8fRb7ajPq9gJ7ajQ-32" value="DQN_Player.py" style="swimlane;fontStyle=0;align=center;verticalAlign=top;childLayout=stackLayout;horizontal=1;startSize=26;horizontalStack=0;resizeParent=1;resizeLast=0;collapsible=1;marginBottom=0;rounded=0;shadow=0;strokeWidth=1;" parent="WIyWlLk6GJQsqaUBKTNV-1" vertex="1">
          <mxGeometry x="640" y="200" width="160" height="130" as="geometry">
            <mxRectangle x="340" y="380" width="170" height="26" as="alternateBounds" />
          </mxGeometry>
        </mxCell>
        <mxCell id="0TfP8fRb7ajPq9gJ7ajQ-33" value="update_target_model" style="text;html=1;align=center;verticalAlign=middle;resizable=0;points=[];autosize=1;strokeColor=none;fillColor=none;" parent="0TfP8fRb7ajPq9gJ7ajQ-32" vertex="1">
          <mxGeometry y="26" width="160" height="20" as="geometry" />
        </mxCell>
        <mxCell id="0TfP8fRb7ajPq9gJ7ajQ-34" value="get_action" style="text;html=1;align=center;verticalAlign=middle;resizable=0;points=[];autosize=1;strokeColor=none;fillColor=none;" parent="0TfP8fRb7ajPq9gJ7ajQ-32" vertex="1">
          <mxGeometry y="46" width="160" height="20" as="geometry" />
        </mxCell>
        <mxCell id="0TfP8fRb7ajPq9gJ7ajQ-35" value="addend_sample" style="text;html=1;align=center;verticalAlign=middle;resizable=0;points=[];autosize=1;strokeColor=none;fillColor=none;" parent="0TfP8fRb7ajPq9gJ7ajQ-32" vertex="1">
          <mxGeometry y="66" width="160" height="20" as="geometry" />
        </mxCell>
        <mxCell id="0TfP8fRb7ajPq9gJ7ajQ-38" style="edgeStyle=orthogonalEdgeStyle;rounded=0;orthogonalLoop=1;jettySize=auto;html=1;entryX=0;entryY=0.5;entryDx=0;entryDy=0;" parent="WIyWlLk6GJQsqaUBKTNV-1" source="0TfP8fRb7ajPq9gJ7ajQ-12" target="0TfP8fRb7ajPq9gJ7ajQ-29" edge="1">
          <mxGeometry relative="1" as="geometry">
            <Array as="points">
              <mxPoint x="420" y="296" />
              <mxPoint x="420" y="320" />
            </Array>
          </mxGeometry>
        </mxCell>
        <mxCell id="0TfP8fRb7ajPq9gJ7ajQ-39" style="edgeStyle=orthogonalEdgeStyle;rounded=0;orthogonalLoop=1;jettySize=auto;html=1;entryX=1;entryY=0.5;entryDx=0;entryDy=0;" parent="WIyWlLk6GJQsqaUBKTNV-1" source="0TfP8fRb7ajPq9gJ7ajQ-34" target="0TfP8fRb7ajPq9gJ7ajQ-31" edge="1">
          <mxGeometry relative="1" as="geometry" />
        </mxCell>
        <mxCell id="0TfP8fRb7ajPq9gJ7ajQ-48" style="edgeStyle=orthogonalEdgeStyle;rounded=0;orthogonalLoop=1;jettySize=auto;html=1;exitX=0.5;exitY=1;exitDx=0;exitDy=0;entryX=0;entryY=0.5;entryDx=0;entryDy=0;" parent="WIyWlLk6GJQsqaUBKTNV-1" source="0TfP8fRb7ajPq9gJ7ajQ-44" target="0TfP8fRb7ajPq9gJ7ajQ-46" edge="1">
          <mxGeometry relative="1" as="geometry" />
        </mxCell>
        <mxCell id="0TfP8fRb7ajPq9gJ7ajQ-44" value="카드 가져오기" style="rounded=0;whiteSpace=wrap;html=1;" parent="WIyWlLk6GJQsqaUBKTNV-1" vertex="1">
          <mxGeometry x="120" y="430" width="120" height="40" as="geometry" />
        </mxCell>
        <mxCell id="0TfP8fRb7ajPq9gJ7ajQ-54" style="edgeStyle=orthogonalEdgeStyle;rounded=0;orthogonalLoop=1;jettySize=auto;html=1;exitX=0.5;exitY=1;exitDx=0;exitDy=0;entryX=0.5;entryY=0;entryDx=0;entryDy=0;" parent="WIyWlLk6GJQsqaUBKTNV-1" source="0TfP8fRb7ajPq9gJ7ajQ-46" target="0TfP8fRb7ajPq9gJ7ajQ-50" edge="1">
          <mxGeometry relative="1" as="geometry" />
        </mxCell>
        <mxCell id="0TfP8fRb7ajPq9gJ7ajQ-46" value="상태 반영" style="rounded=0;whiteSpace=wrap;html=1;" parent="WIyWlLk6GJQsqaUBKTNV-1" vertex="1">
          <mxGeometry x="280" y="490" width="120" height="40" as="geometry" />
        </mxCell>
        <mxCell id="0TfP8fRb7ajPq9gJ7ajQ-55" style="edgeStyle=orthogonalEdgeStyle;rounded=0;orthogonalLoop=1;jettySize=auto;html=1;exitX=0.5;exitY=1;exitDx=0;exitDy=0;entryX=0.5;entryY=0;entryDx=0;entryDy=0;" parent="WIyWlLk6GJQsqaUBKTNV-1" source="0TfP8fRb7ajPq9gJ7ajQ-50" target="0TfP8fRb7ajPq9gJ7ajQ-51" edge="1">
          <mxGeometry relative="1" as="geometry" />
        </mxCell>
        <mxCell id="0TfP8fRb7ajPq9gJ7ajQ-56" style="edgeStyle=orthogonalEdgeStyle;rounded=0;orthogonalLoop=1;jettySize=auto;html=1;exitX=1;exitY=0.5;exitDx=0;exitDy=0;" parent="WIyWlLk6GJQsqaUBKTNV-1" source="0TfP8fRb7ajPq9gJ7ajQ-50" edge="1">
          <mxGeometry relative="1" as="geometry">
            <mxPoint x="340" y="130" as="targetPoint" />
            <Array as="points">
              <mxPoint x="430" y="575" />
              <mxPoint x="430" y="130" />
            </Array>
          </mxGeometry>
        </mxCell>
        <mxCell id="0TfP8fRb7ajPq9gJ7ajQ-50" value="승자 있는가?" style="rhombus;whiteSpace=wrap;html=1;" parent="WIyWlLk6GJQsqaUBKTNV-1" vertex="1">
          <mxGeometry x="270" y="550" width="140" height="50" as="geometry" />
        </mxCell>
        <mxCell id="0TfP8fRb7ajPq9gJ7ajQ-51" value="게임 종료" style="rounded=0;whiteSpace=wrap;html=1;" parent="WIyWlLk6GJQsqaUBKTNV-1" vertex="1">
          <mxGeometry x="280" y="620" width="120" height="40" as="geometry" />
        </mxCell>
        <mxCell id="0TfP8fRb7ajPq9gJ7ajQ-58" value="초과" style="text;html=1;strokeColor=none;fillColor=none;align=center;verticalAlign=middle;whiteSpace=wrap;rounded=0;" parent="WIyWlLk6GJQsqaUBKTNV-1" vertex="1">
          <mxGeometry x="260" y="140" width="40" height="20" as="geometry" />
        </mxCell>
        <mxCell id="0TfP8fRb7ajPq9gJ7ajQ-59" value="YES" style="text;html=1;strokeColor=none;fillColor=none;align=center;verticalAlign=middle;whiteSpace=wrap;rounded=0;" parent="WIyWlLk6GJQsqaUBKTNV-1" vertex="1">
          <mxGeometry x="340" y="410" width="40" height="20" as="geometry" />
        </mxCell>
        <mxCell id="0TfP8fRb7ajPq9gJ7ajQ-60" value="NO" style="text;html=1;strokeColor=none;fillColor=none;align=center;verticalAlign=middle;whiteSpace=wrap;rounded=0;" parent="WIyWlLk6GJQsqaUBKTNV-1" vertex="1">
          <mxGeometry x="220" y="360" width="40" height="20" as="geometry" />
        </mxCell>
        <mxCell id="0TfP8fRb7ajPq9gJ7ajQ-61" value="YES" style="text;html=1;strokeColor=none;fillColor=none;align=center;verticalAlign=middle;whiteSpace=wrap;rounded=0;" parent="WIyWlLk6GJQsqaUBKTNV-1" vertex="1">
          <mxGeometry x="340" y="600" width="40" height="20" as="geometry" />
        </mxCell>
        <mxCell id="0TfP8fRb7ajPq9gJ7ajQ-62" value="NO" style="text;html=1;strokeColor=none;fillColor=none;align=center;verticalAlign=middle;whiteSpace=wrap;rounded=0;" parent="WIyWlLk6GJQsqaUBKTNV-1" vertex="1">
          <mxGeometry x="398" y="575" width="40" height="20" as="geometry" />
        </mxCell>
      </root>
    </mxGraphModel>
  </diagram>
  <diagram id="2JfTuwJ9_Mm40EBce0Ea" name="train">
    <mxGraphModel dx="800" dy="1545" grid="1" gridSize="10" guides="1" tooltips="1" connect="1" arrows="1" fold="1" page="1" pageScale="1" pageWidth="827" pageHeight="1169" math="0" shadow="0">
      <root>
        <mxCell id="BY2_oqR2zBnF413m95xc-0" />
        <mxCell id="BY2_oqR2zBnF413m95xc-1" parent="BY2_oqR2zBnF413m95xc-0" />
        <mxCell id="96cR91jpmeZZEf4vWu15-0" value="Enviroment.py" style="swimlane;fontStyle=0;align=center;verticalAlign=top;childLayout=stackLayout;horizontal=1;startSize=26;horizontalStack=0;resizeParent=1;resizeLast=0;collapsible=1;marginBottom=0;rounded=0;shadow=0;strokeWidth=1;" parent="BY2_oqR2zBnF413m95xc-1" vertex="1">
          <mxGeometry x="24" y="480" width="160" height="130" as="geometry">
            <mxRectangle x="340" y="380" width="170" height="26" as="alternateBounds" />
          </mxGeometry>
        </mxCell>
        <mxCell id="96cR91jpmeZZEf4vWu15-1" value="resetGame" style="text;html=1;align=center;verticalAlign=middle;resizable=0;points=[];autosize=1;strokeColor=none;fillColor=none;" parent="96cR91jpmeZZEf4vWu15-0" vertex="1">
          <mxGeometry y="26" width="160" height="20" as="geometry" />
        </mxCell>
        <mxCell id="96cR91jpmeZZEf4vWu15-2" value="giveCards" style="text;html=1;align=center;verticalAlign=middle;resizable=0;points=[];autosize=1;strokeColor=none;fillColor=none;" parent="96cR91jpmeZZEf4vWu15-0" vertex="1">
          <mxGeometry y="46" width="160" height="20" as="geometry" />
        </mxCell>
        <mxCell id="96cR91jpmeZZEf4vWu15-3" value="find_turn" style="text;html=1;align=center;verticalAlign=middle;resizable=0;points=[];autosize=1;strokeColor=none;fillColor=none;" parent="96cR91jpmeZZEf4vWu15-0" vertex="1">
          <mxGeometry y="66" width="160" height="20" as="geometry" />
        </mxCell>
        <mxCell id="96cR91jpmeZZEf4vWu15-4" value="action_able" style="text;html=1;align=center;verticalAlign=middle;resizable=0;points=[];autosize=1;strokeColor=none;fillColor=none;" parent="96cR91jpmeZZEf4vWu15-0" vertex="1">
          <mxGeometry y="86" width="160" height="20" as="geometry" />
        </mxCell>
        <mxCell id="96cR91jpmeZZEf4vWu15-5" value="step" style="text;html=1;align=center;verticalAlign=middle;resizable=0;points=[];autosize=1;strokeColor=none;fillColor=none;" parent="96cR91jpmeZZEf4vWu15-0" vertex="1">
          <mxGeometry y="106" width="160" height="20" as="geometry" />
        </mxCell>
        <mxCell id="96cR91jpmeZZEf4vWu15-6" style="edgeStyle=orthogonalEdgeStyle;rounded=0;orthogonalLoop=1;jettySize=auto;html=1;exitX=0.5;exitY=1;exitDx=0;exitDy=0;" parent="BY2_oqR2zBnF413m95xc-1" source="96cR91jpmeZZEf4vWu15-7" edge="1">
          <mxGeometry relative="1" as="geometry">
            <mxPoint x="344" y="300" as="targetPoint" />
          </mxGeometry>
        </mxCell>
        <mxCell id="96cR91jpmeZZEf4vWu15-7" value="train.py" style="rounded=1;whiteSpace=wrap;html=1;arcSize=50;" parent="BY2_oqR2zBnF413m95xc-1" vertex="1">
          <mxGeometry x="282" y="240" width="120" height="40" as="geometry" />
        </mxCell>
        <mxCell id="96cR91jpmeZZEf4vWu15-8" style="edgeStyle=orthogonalEdgeStyle;rounded=0;orthogonalLoop=1;jettySize=auto;html=1;exitX=0.5;exitY=1;exitDx=0;exitDy=0;entryX=0.5;entryY=0;entryDx=0;entryDy=0;" parent="BY2_oqR2zBnF413m95xc-1" source="96cR91jpmeZZEf4vWu15-9" target="96cR91jpmeZZEf4vWu15-15" edge="1">
          <mxGeometry relative="1" as="geometry" />
        </mxCell>
        <mxCell id="96cR91jpmeZZEf4vWu15-9" value="call Game and reset&lt;br&gt;hand out cards" style="rounded=0;whiteSpace=wrap;html=1;" parent="BY2_oqR2zBnF413m95xc-1" vertex="1">
          <mxGeometry x="284" y="360" width="120" height="40" as="geometry" />
        </mxCell>
        <mxCell id="96cR91jpmeZZEf4vWu15-10" style="edgeStyle=orthogonalEdgeStyle;rounded=0;orthogonalLoop=1;jettySize=auto;html=1;entryX=0;entryY=0.5;entryDx=0;entryDy=0;" parent="BY2_oqR2zBnF413m95xc-1" source="96cR91jpmeZZEf4vWu15-1" target="96cR91jpmeZZEf4vWu15-9" edge="1">
          <mxGeometry relative="1" as="geometry" />
        </mxCell>
        <mxCell id="96cR91jpmeZZEf4vWu15-11" style="edgeStyle=orthogonalEdgeStyle;rounded=0;orthogonalLoop=1;jettySize=auto;html=1;entryX=0;entryY=0.5;entryDx=0;entryDy=0;" parent="BY2_oqR2zBnF413m95xc-1" source="96cR91jpmeZZEf4vWu15-2" target="96cR91jpmeZZEf4vWu15-9" edge="1">
          <mxGeometry relative="1" as="geometry" />
        </mxCell>
        <mxCell id="96cR91jpmeZZEf4vWu15-12" style="edgeStyle=orthogonalEdgeStyle;rounded=0;orthogonalLoop=1;jettySize=auto;html=1;exitX=0.5;exitY=1;exitDx=0;exitDy=0;entryX=0.5;entryY=0;entryDx=0;entryDy=0;" parent="BY2_oqR2zBnF413m95xc-1" source="96cR91jpmeZZEf4vWu15-15" target="96cR91jpmeZZEf4vWu15-17" edge="1">
          <mxGeometry relative="1" as="geometry" />
        </mxCell>
        <mxCell id="96cR91jpmeZZEf4vWu15-63" style="edgeStyle=orthogonalEdgeStyle;rounded=0;orthogonalLoop=1;jettySize=auto;html=1;exitX=0;exitY=0.5;exitDx=0;exitDy=0;entryX=0.5;entryY=0;entryDx=0;entryDy=0;" parent="BY2_oqR2zBnF413m95xc-1" source="96cR91jpmeZZEf4vWu15-15" edge="1" target="ZS0IYYT7ynY8OsAif-Rx-20">
          <mxGeometry relative="1" as="geometry">
            <mxPoint x="244" y="970" as="targetPoint" />
            <Array as="points">
              <mxPoint x="200" y="445" />
              <mxPoint x="200" y="720" />
              <mxPoint x="150" y="720" />
            </Array>
          </mxGeometry>
        </mxCell>
        <mxCell id="96cR91jpmeZZEf4vWu15-15" value="250번 학습 완료?" style="rhombus;whiteSpace=wrap;html=1;" parent="BY2_oqR2zBnF413m95xc-1" vertex="1">
          <mxGeometry x="286" y="420" width="116" height="50" as="geometry" />
        </mxCell>
        <mxCell id="96cR91jpmeZZEf4vWu15-16" style="edgeStyle=orthogonalEdgeStyle;rounded=0;orthogonalLoop=1;jettySize=auto;html=1;exitX=0.5;exitY=1;exitDx=0;exitDy=0;entryX=0.5;entryY=0;entryDx=0;entryDy=0;" parent="BY2_oqR2zBnF413m95xc-1" source="96cR91jpmeZZEf4vWu15-17" target="96cR91jpmeZZEf4vWu15-21" edge="1">
          <mxGeometry relative="1" as="geometry" />
        </mxCell>
        <mxCell id="96cR91jpmeZZEf4vWu15-17" value="AI Player" style="rounded=0;whiteSpace=wrap;html=1;" parent="BY2_oqR2zBnF413m95xc-1" vertex="1">
          <mxGeometry x="284" y="520" width="120" height="40" as="geometry" />
        </mxCell>
        <mxCell id="96cR91jpmeZZEf4vWu15-50" style="edgeStyle=orthogonalEdgeStyle;rounded=0;orthogonalLoop=1;jettySize=auto;html=1;exitX=0.5;exitY=1;exitDx=0;exitDy=0;entryX=0.5;entryY=0;entryDx=0;entryDy=0;" parent="BY2_oqR2zBnF413m95xc-1" source="96cR91jpmeZZEf4vWu15-21" target="96cR91jpmeZZEf4vWu15-30" edge="1">
          <mxGeometry relative="1" as="geometry" />
        </mxCell>
        <mxCell id="96cR91jpmeZZEf4vWu15-21" value="get state" style="rounded=0;whiteSpace=wrap;html=1;" parent="BY2_oqR2zBnF413m95xc-1" vertex="1">
          <mxGeometry x="284" y="580" width="120" height="40" as="geometry" />
        </mxCell>
        <mxCell id="96cR91jpmeZZEf4vWu15-52" style="edgeStyle=orthogonalEdgeStyle;rounded=0;orthogonalLoop=1;jettySize=auto;html=1;exitX=0.5;exitY=1;exitDx=0;exitDy=0;entryX=0.5;entryY=0;entryDx=0;entryDy=0;" parent="BY2_oqR2zBnF413m95xc-1" source="96cR91jpmeZZEf4vWu15-30" target="96cR91jpmeZZEf4vWu15-51" edge="1">
          <mxGeometry relative="1" as="geometry" />
        </mxCell>
        <mxCell id="96cR91jpmeZZEf4vWu15-30" value="solve action" style="rounded=0;whiteSpace=wrap;html=1;" parent="BY2_oqR2zBnF413m95xc-1" vertex="1">
          <mxGeometry x="286" y="640" width="120" height="40" as="geometry" />
        </mxCell>
        <mxCell id="96cR91jpmeZZEf4vWu15-31" value="DQN_Player.py" style="swimlane;fontStyle=0;align=center;verticalAlign=top;childLayout=stackLayout;horizontal=1;startSize=26;horizontalStack=0;resizeParent=1;resizeLast=0;collapsible=1;marginBottom=0;rounded=0;shadow=0;strokeWidth=1;" parent="BY2_oqR2zBnF413m95xc-1" vertex="1">
          <mxGeometry x="644" y="480" width="160" height="130" as="geometry">
            <mxRectangle x="340" y="380" width="170" height="26" as="alternateBounds" />
          </mxGeometry>
        </mxCell>
        <mxCell id="96cR91jpmeZZEf4vWu15-32" value="update_target_model" style="text;html=1;align=center;verticalAlign=middle;resizable=0;points=[];autosize=1;strokeColor=none;fillColor=none;" parent="96cR91jpmeZZEf4vWu15-31" vertex="1">
          <mxGeometry y="26" width="160" height="20" as="geometry" />
        </mxCell>
        <mxCell id="96cR91jpmeZZEf4vWu15-33" value="get_action" style="text;html=1;align=center;verticalAlign=middle;resizable=0;points=[];autosize=1;strokeColor=none;fillColor=none;" parent="96cR91jpmeZZEf4vWu15-31" vertex="1">
          <mxGeometry y="46" width="160" height="20" as="geometry" />
        </mxCell>
        <mxCell id="96cR91jpmeZZEf4vWu15-34" value="addend_sample" style="text;html=1;align=center;verticalAlign=middle;resizable=0;points=[];autosize=1;strokeColor=none;fillColor=none;" parent="96cR91jpmeZZEf4vWu15-31" vertex="1">
          <mxGeometry y="66" width="160" height="20" as="geometry" />
        </mxCell>
        <mxCell id="96cR91jpmeZZEf4vWu15-35" style="edgeStyle=orthogonalEdgeStyle;rounded=0;orthogonalLoop=1;jettySize=auto;html=1;entryX=0;entryY=0.5;entryDx=0;entryDy=0;" parent="BY2_oqR2zBnF413m95xc-1" source="96cR91jpmeZZEf4vWu15-4" target="96cR91jpmeZZEf4vWu15-21" edge="1">
          <mxGeometry relative="1" as="geometry">
            <Array as="points">
              <mxPoint x="254" y="576" />
              <mxPoint x="254" y="600" />
            </Array>
            <mxPoint x="454" y="600" as="targetPoint" />
          </mxGeometry>
        </mxCell>
        <mxCell id="96cR91jpmeZZEf4vWu15-36" style="edgeStyle=orthogonalEdgeStyle;rounded=0;orthogonalLoop=1;jettySize=auto;html=1;entryX=1;entryY=0.5;entryDx=0;entryDy=0;" parent="BY2_oqR2zBnF413m95xc-1" source="96cR91jpmeZZEf4vWu15-33" target="96cR91jpmeZZEf4vWu15-30" edge="1">
          <mxGeometry relative="1" as="geometry" />
        </mxCell>
        <mxCell id="96cR91jpmeZZEf4vWu15-54" style="edgeStyle=orthogonalEdgeStyle;rounded=0;orthogonalLoop=1;jettySize=auto;html=1;exitX=0.5;exitY=1;exitDx=0;exitDy=0;entryX=0.5;entryY=0;entryDx=0;entryDy=0;" parent="BY2_oqR2zBnF413m95xc-1" source="96cR91jpmeZZEf4vWu15-51" target="96cR91jpmeZZEf4vWu15-53" edge="1">
          <mxGeometry relative="1" as="geometry" />
        </mxCell>
        <mxCell id="96cR91jpmeZZEf4vWu15-51" value="결과 반영" style="rounded=0;whiteSpace=wrap;html=1;" parent="BY2_oqR2zBnF413m95xc-1" vertex="1">
          <mxGeometry x="284" y="700" width="120" height="40" as="geometry" />
        </mxCell>
        <mxCell id="96cR91jpmeZZEf4vWu15-59" value="" style="edgeStyle=orthogonalEdgeStyle;rounded=0;orthogonalLoop=1;jettySize=auto;html=1;" parent="BY2_oqR2zBnF413m95xc-1" source="96cR91jpmeZZEf4vWu15-53" edge="1">
          <mxGeometry relative="1" as="geometry">
            <mxPoint x="344" y="820" as="targetPoint" />
          </mxGeometry>
        </mxCell>
        <mxCell id="96cR91jpmeZZEf4vWu15-53" value="리플레이 메모리에 &lt;br&gt;샘플 업데이트" style="rounded=0;whiteSpace=wrap;html=1;" parent="BY2_oqR2zBnF413m95xc-1" vertex="1">
          <mxGeometry x="284" y="760" width="120" height="40" as="geometry" />
        </mxCell>
        <mxCell id="96cR91jpmeZZEf4vWu15-55" style="edgeStyle=orthogonalEdgeStyle;rounded=0;orthogonalLoop=1;jettySize=auto;html=1;entryX=1;entryY=0.5;entryDx=0;entryDy=0;" parent="BY2_oqR2zBnF413m95xc-1" source="96cR91jpmeZZEf4vWu15-34" target="96cR91jpmeZZEf4vWu15-53" edge="1">
          <mxGeometry relative="1" as="geometry">
            <Array as="points">
              <mxPoint x="544" y="556" />
              <mxPoint x="544" y="780" />
            </Array>
          </mxGeometry>
        </mxCell>
        <mxCell id="96cR91jpmeZZEf4vWu15-56" style="edgeStyle=orthogonalEdgeStyle;rounded=0;orthogonalLoop=1;jettySize=auto;html=1;entryX=0;entryY=0.5;entryDx=0;entryDy=0;" parent="BY2_oqR2zBnF413m95xc-1" source="96cR91jpmeZZEf4vWu15-3" target="96cR91jpmeZZEf4vWu15-17" edge="1">
          <mxGeometry relative="1" as="geometry">
            <Array as="points">
              <mxPoint x="254" y="556" />
              <mxPoint x="254" y="540" />
            </Array>
          </mxGeometry>
        </mxCell>
        <mxCell id="96cR91jpmeZZEf4vWu15-57" style="edgeStyle=orthogonalEdgeStyle;rounded=0;orthogonalLoop=1;jettySize=auto;html=1;entryX=0;entryY=0.5;entryDx=0;entryDy=0;" parent="BY2_oqR2zBnF413m95xc-1" source="96cR91jpmeZZEf4vWu15-5" target="96cR91jpmeZZEf4vWu15-51" edge="1">
          <mxGeometry relative="1" as="geometry" />
        </mxCell>
        <mxCell id="96cR91jpmeZZEf4vWu15-61" style="edgeStyle=orthogonalEdgeStyle;rounded=0;orthogonalLoop=1;jettySize=auto;html=1;" parent="BY2_oqR2zBnF413m95xc-1" source="96cR91jpmeZZEf4vWu15-60" edge="1">
          <mxGeometry relative="1" as="geometry">
            <mxPoint x="344" y="500" as="targetPoint" />
            <Array as="points">
              <mxPoint x="474" y="845" />
              <mxPoint x="474" y="500" />
            </Array>
          </mxGeometry>
        </mxCell>
        <mxCell id="96cR91jpmeZZEf4vWu15-62" style="edgeStyle=orthogonalEdgeStyle;rounded=0;orthogonalLoop=1;jettySize=auto;html=1;exitX=0.5;exitY=1;exitDx=0;exitDy=0;" parent="BY2_oqR2zBnF413m95xc-1" source="96cR91jpmeZZEf4vWu15-67" edge="1">
          <mxGeometry relative="1" as="geometry">
            <mxPoint x="344" y="950" as="sourcePoint" />
            <mxPoint x="344" y="410" as="targetPoint" />
            <Array as="points">
              <mxPoint x="344" y="950" />
              <mxPoint x="494" y="950" />
              <mxPoint x="494" y="410" />
            </Array>
          </mxGeometry>
        </mxCell>
        <mxCell id="96cR91jpmeZZEf4vWu15-68" style="edgeStyle=orthogonalEdgeStyle;rounded=0;orthogonalLoop=1;jettySize=auto;html=1;exitX=0.5;exitY=1;exitDx=0;exitDy=0;entryX=0.5;entryY=0;entryDx=0;entryDy=0;" parent="BY2_oqR2zBnF413m95xc-1" source="96cR91jpmeZZEf4vWu15-60" target="96cR91jpmeZZEf4vWu15-67" edge="1">
          <mxGeometry relative="1" as="geometry" />
        </mxCell>
        <mxCell id="96cR91jpmeZZEf4vWu15-60" value="게임 종료?" style="rhombus;whiteSpace=wrap;html=1;" parent="BY2_oqR2zBnF413m95xc-1" vertex="1">
          <mxGeometry x="286" y="820" width="116" height="50" as="geometry" />
        </mxCell>
        <mxCell id="96cR91jpmeZZEf4vWu15-67" value="타겟 신경망 업데이트" style="rounded=0;whiteSpace=wrap;html=1;" parent="BY2_oqR2zBnF413m95xc-1" vertex="1">
          <mxGeometry x="284" y="890" width="120" height="40" as="geometry" />
        </mxCell>
        <mxCell id="96cR91jpmeZZEf4vWu15-69" style="edgeStyle=orthogonalEdgeStyle;rounded=0;orthogonalLoop=1;jettySize=auto;html=1;entryX=1;entryY=0.5;entryDx=0;entryDy=0;" parent="BY2_oqR2zBnF413m95xc-1" source="96cR91jpmeZZEf4vWu15-32" target="96cR91jpmeZZEf4vWu15-67" edge="1">
          <mxGeometry relative="1" as="geometry">
            <Array as="points">
              <mxPoint x="534" y="516" />
              <mxPoint x="534" y="910" />
            </Array>
          </mxGeometry>
        </mxCell>
        <mxCell id="ZS0IYYT7ynY8OsAif-Rx-15" style="edgeStyle=orthogonalEdgeStyle;rounded=0;orthogonalLoop=1;jettySize=auto;html=1;exitX=0.5;exitY=1;exitDx=0;exitDy=0;entryX=0.5;entryY=0;entryDx=0;entryDy=0;" edge="1" parent="BY2_oqR2zBnF413m95xc-1" source="ZS0IYYT7ynY8OsAif-Rx-14" target="96cR91jpmeZZEf4vWu15-9">
          <mxGeometry relative="1" as="geometry">
            <mxPoint x="344" y="450" as="targetPoint" />
          </mxGeometry>
        </mxCell>
        <mxCell id="ZS0IYYT7ynY8OsAif-Rx-14" value="Input : how many &lt;br&gt;cards to start with?" style="shape=parallelogram;perimeter=parallelogramPerimeter;whiteSpace=wrap;html=1;fixedSize=1;" vertex="1" parent="BY2_oqR2zBnF413m95xc-1">
          <mxGeometry x="276" y="300" width="136" height="40" as="geometry" />
        </mxCell>
        <mxCell id="ZS0IYYT7ynY8OsAif-Rx-23" style="edgeStyle=orthogonalEdgeStyle;rounded=0;orthogonalLoop=1;jettySize=auto;html=1;entryX=0.5;entryY=0;entryDx=0;entryDy=0;" edge="1" parent="BY2_oqR2zBnF413m95xc-1" source="ZS0IYYT7ynY8OsAif-Rx-20" target="ZS0IYYT7ynY8OsAif-Rx-21">
          <mxGeometry relative="1" as="geometry" />
        </mxCell>
        <mxCell id="ZS0IYYT7ynY8OsAif-Rx-20" value="학습결과 출력" style="shape=parallelogram;perimeter=parallelogramPerimeter;whiteSpace=wrap;html=1;fixedSize=1;" vertex="1" parent="BY2_oqR2zBnF413m95xc-1">
          <mxGeometry x="90" y="750" width="120" height="40" as="geometry" />
        </mxCell>
        <mxCell id="ZS0IYYT7ynY8OsAif-Rx-24" style="edgeStyle=orthogonalEdgeStyle;rounded=0;orthogonalLoop=1;jettySize=auto;html=1;entryX=0.5;entryY=0;entryDx=0;entryDy=0;" edge="1" parent="BY2_oqR2zBnF413m95xc-1" source="ZS0IYYT7ynY8OsAif-Rx-21" target="ZS0IYYT7ynY8OsAif-Rx-22">
          <mxGeometry relative="1" as="geometry" />
        </mxCell>
        <mxCell id="ZS0IYYT7ynY8OsAif-Rx-21" value="Input : &lt;br&gt;더 학습할지?" style="shape=parallelogram;perimeter=parallelogramPerimeter;whiteSpace=wrap;html=1;fixedSize=1;" vertex="1" parent="BY2_oqR2zBnF413m95xc-1">
          <mxGeometry x="90" y="810" width="120" height="40" as="geometry" />
        </mxCell>
        <mxCell id="ZS0IYYT7ynY8OsAif-Rx-25" style="edgeStyle=orthogonalEdgeStyle;rounded=0;orthogonalLoop=1;jettySize=auto;html=1;exitX=0.5;exitY=1;exitDx=0;exitDy=0;entryX=0;entryY=0.5;entryDx=0;entryDy=0;" edge="1" parent="BY2_oqR2zBnF413m95xc-1" source="ZS0IYYT7ynY8OsAif-Rx-22" target="ZS0IYYT7ynY8OsAif-Rx-14">
          <mxGeometry relative="1" as="geometry">
            <mxPoint x="340" y="290" as="targetPoint" />
            <Array as="points">
              <mxPoint x="150" y="940" />
              <mxPoint x="220" y="940" />
              <mxPoint x="220" y="320" />
            </Array>
          </mxGeometry>
        </mxCell>
        <mxCell id="ZS0IYYT7ynY8OsAif-Rx-28" style="edgeStyle=orthogonalEdgeStyle;rounded=0;orthogonalLoop=1;jettySize=auto;html=1;exitX=0;exitY=0.5;exitDx=0;exitDy=0;entryX=0.5;entryY=0;entryDx=0;entryDy=0;" edge="1" parent="BY2_oqR2zBnF413m95xc-1" source="ZS0IYYT7ynY8OsAif-Rx-22" target="ZS0IYYT7ynY8OsAif-Rx-27">
          <mxGeometry relative="1" as="geometry">
            <Array as="points">
              <mxPoint x="84" y="895" />
            </Array>
          </mxGeometry>
        </mxCell>
        <mxCell id="ZS0IYYT7ynY8OsAif-Rx-22" value="더 학습하는가?" style="rhombus;whiteSpace=wrap;html=1;" vertex="1" parent="BY2_oqR2zBnF413m95xc-1">
          <mxGeometry x="92" y="870" width="116" height="50" as="geometry" />
        </mxCell>
        <mxCell id="ZS0IYYT7ynY8OsAif-Rx-26" value="종료" style="rounded=1;whiteSpace=wrap;html=1;arcSize=50;" vertex="1" parent="BY2_oqR2zBnF413m95xc-1">
          <mxGeometry x="24" y="1040" width="120" height="40" as="geometry" />
        </mxCell>
        <mxCell id="ZS0IYYT7ynY8OsAif-Rx-29" style="edgeStyle=orthogonalEdgeStyle;rounded=0;orthogonalLoop=1;jettySize=auto;html=1;exitX=0.5;exitY=1;exitDx=0;exitDy=0;entryX=0.5;entryY=0;entryDx=0;entryDy=0;" edge="1" parent="BY2_oqR2zBnF413m95xc-1" source="ZS0IYYT7ynY8OsAif-Rx-27" target="ZS0IYYT7ynY8OsAif-Rx-26">
          <mxGeometry relative="1" as="geometry" />
        </mxCell>
        <mxCell id="ZS0IYYT7ynY8OsAif-Rx-27" value="최종 학습결과 출력" style="shape=parallelogram;perimeter=parallelogramPerimeter;whiteSpace=wrap;html=1;fixedSize=1;" vertex="1" parent="BY2_oqR2zBnF413m95xc-1">
          <mxGeometry x="11" y="970" width="146" height="40" as="geometry" />
        </mxCell>
        <mxCell id="ZS0IYYT7ynY8OsAif-Rx-30" value="YES" style="text;html=1;strokeColor=none;fillColor=none;align=center;verticalAlign=middle;whiteSpace=wrap;rounded=0;" vertex="1" parent="BY2_oqR2zBnF413m95xc-1">
          <mxGeometry x="150" y="920" width="40" height="20" as="geometry" />
        </mxCell>
        <mxCell id="ZS0IYYT7ynY8OsAif-Rx-31" value="NO" style="text;html=1;strokeColor=none;fillColor=none;align=center;verticalAlign=middle;whiteSpace=wrap;rounded=0;" vertex="1" parent="BY2_oqR2zBnF413m95xc-1">
          <mxGeometry x="64" y="876" width="40" height="20" as="geometry" />
        </mxCell>
        <mxCell id="ZS0IYYT7ynY8OsAif-Rx-32" value="YES" style="text;html=1;strokeColor=none;fillColor=none;align=center;verticalAlign=middle;whiteSpace=wrap;rounded=0;" vertex="1" parent="BY2_oqR2zBnF413m95xc-1">
          <mxGeometry x="340" y="870" width="40" height="20" as="geometry" />
        </mxCell>
        <mxCell id="ZS0IYYT7ynY8OsAif-Rx-33" value="NO" style="text;html=1;strokeColor=none;fillColor=none;align=center;verticalAlign=middle;whiteSpace=wrap;rounded=0;" vertex="1" parent="BY2_oqR2zBnF413m95xc-1">
          <mxGeometry x="380" y="820" width="40" height="20" as="geometry" />
        </mxCell>
        <mxCell id="ZS0IYYT7ynY8OsAif-Rx-34" value="YES" style="text;html=1;strokeColor=none;fillColor=none;align=center;verticalAlign=middle;whiteSpace=wrap;rounded=0;" vertex="1" parent="BY2_oqR2zBnF413m95xc-1">
          <mxGeometry x="260" y="420" width="40" height="20" as="geometry" />
        </mxCell>
        <mxCell id="ZS0IYYT7ynY8OsAif-Rx-35" value="NO" style="text;html=1;strokeColor=none;fillColor=none;align=center;verticalAlign=middle;whiteSpace=wrap;rounded=0;" vertex="1" parent="BY2_oqR2zBnF413m95xc-1">
          <mxGeometry x="340" y="470" width="40" height="20" as="geometry" />
        </mxCell>
      </root>
    </mxGraphModel>
  </diagram>
</mxfile>
